<svg width="64" height="64" viewBox="0 0 64 64" fill="none" xmlns="http://www.w3.org/2000/svg">
<path fill-rule="evenodd" clip-rule="evenodd" d="M41.9315 63.9869H47.3162C56.5246 63.9869 64 56.513 64 47.3065V16.6803C64 7.47389 56.5246 0 47.3162 0H16.6838C7.47542 0 0 7.47389 0 16.6803V47.3065C0 56.513 7.47542 63.9869 16.6838 63.9869H32.8205C33.1832 63.9869 33.531 63.8428 33.7875 63.5864C34.044 63.33 34.188 62.9823 34.188 62.6196C34.188 62.257 34.044 61.9093 33.7875 61.6529C33.531 61.3964 33.1832 61.2524 32.8205 61.2524H16.6838C8.98516 61.2524 2.73504 55.0036 2.73504 47.3065V16.6803C2.73504 8.98332 8.98516 2.73448 16.6838 2.73448H47.3162C55.0148 2.73448 61.265 8.98332 61.265 16.6803V47.3065C61.265 55.0036 55.0148 61.2524 47.3162 61.2524H41.9315C41.5688 61.2524 41.221 61.3964 40.9645 61.6529C40.708 61.9093 40.564 62.257 40.564 62.6196C40.564 62.9823 40.708 63.33 40.9645 63.5864C41.221 63.8428 41.5688 63.9869 41.9315 63.9869Z" fill="black"/>
<path fill-rule="evenodd" clip-rule="evenodd" d="M40.5716 26.449V31.6281C40.5716 32.3828 41.1842 32.9975 41.9391 32.9975H48.815L47.8588 38.9937H41.9402C41.7605 38.9936 41.5826 39.0288 41.4165 39.0975C41.2505 39.1661 41.0996 39.2668 40.9725 39.3938C40.8454 39.5207 40.7446 39.6715 40.6758 39.8375C40.607 40.0034 40.5716 40.1813 40.5716 40.3609V62.6306C40.5716 63.3864 41.1842 64 41.9391 64C42.694 64 43.3066 63.3864 43.3066 62.6317V41.7282H49.0283C49.7001 41.7282 50.2712 41.2382 50.3784 40.5764L51.7678 31.8414C51.7986 31.6462 51.7867 31.4466 51.733 31.2565C51.6793 31.0663 51.585 30.89 51.4566 30.7398C51.3281 30.5896 51.1687 30.469 50.9891 30.3863C50.8096 30.3036 50.6143 30.2608 50.4167 30.2609H43.3066V26.1876L41.9391 27.5548L41.9741 27.4936L43.2804 26.1209C43.2115 24.7208 43.4117 23.5997 44.4652 23.5067H51.0523C51.8072 23.5067 52.4198 22.8931 52.4198 22.1384V14.0399C52.4196 13.7303 52.3143 13.4299 52.1212 13.1879C51.928 12.9458 51.6584 12.7765 51.3564 12.7077C46.1314 11.5133 40.192 11.8895 36.2535 14.1613C33.3806 15.8173 31.4989 18.4304 31.4584 22.1241V30.2609H25.1044C24.3495 30.2609 23.7369 30.8723 23.7369 31.6281V40.3598C23.7369 41.1146 24.3495 41.7271 25.1044 41.7271H31.4584V62.6295C31.4584 63.3853 32.0711 63.9989 32.827 63.9989C33.5808 63.9989 34.1946 63.3853 34.1946 62.6306V40.3609C34.1946 39.6062 33.5819 38.9937 32.827 38.9937H26.473V32.9975H32.827C33.5819 32.9975 34.1946 32.3839 34.1946 31.6281V22.1493C34.2329 18.8351 36.4176 16.7919 39.3846 15.7233C42.3855 14.6404 46.162 14.5179 49.6837 15.1567V20.7722H44.4225C44.3941 20.7722 44.3678 20.7722 44.3394 20.7744C41.8286 20.9275 40.3867 22.985 40.5486 26.2576C40.5508 26.3221 40.5607 26.3866 40.5716 26.449Z" fill="black"/>
</svg>
