<svg width="64" height="64" viewBox="0 0 64 64" fill="none" xmlns="http://www.w3.org/2000/svg">
<path d="M47.9771 63.9997H16.0229C11.7749 63.995 7.70227 62.3054 4.69844 59.3016C1.69461 56.2978 0.00490214 52.2252 0 47.9771V16.0224C0.00497215 11.7744 1.69471 7.70177 4.69853 4.69805C7.70235 1.69433 11.775 0.00476179 16.0229 0H47.9771C52.2251 0.00476192 56.2977 1.69437 59.3016 4.69814C62.3054 7.70192 63.9951 11.7746 64 16.0226V47.9774C63.9951 52.2254 62.3054 56.2981 59.3016 59.3019C56.2977 62.3056 52.2251 63.9952 47.9771 64V63.9997ZM16.0229 2.6565C12.4793 2.66056 9.0821 4.07005 6.57644 6.57576C4.07078 9.08146 2.66131 12.4788 2.65725 16.0224V47.9771C2.66131 51.5207 4.07078 54.918 6.57644 57.4237C9.0821 59.9294 12.4793 61.3389 16.0229 61.343H47.9771C51.5207 61.339 54.9181 59.9295 57.4238 57.4237C59.9296 54.9179 61.339 51.5205 61.343 47.9768V16.0224C61.339 12.4787 59.9295 9.08138 57.4237 6.57566C54.918 4.06995 51.5207 2.66049 47.9771 2.6565H16.0229Z" fill="black"/>
<path d="M32 48.3637C28.7636 48.3637 25.5998 47.404 22.9089 45.6059C20.2179 43.8078 18.1205 41.2521 16.882 38.262C15.6434 35.2719 15.3194 31.9817 15.9507 28.8074C16.5821 25.6331 18.1406 22.7173 20.429 20.4288C22.7175 18.1402 25.6332 16.5817 28.8075 15.9503C31.9817 15.3188 35.2719 15.6428 38.2619 16.8813C41.252 18.1199 43.8077 20.2172 45.6058 22.9082C47.4039 25.5992 48.3636 28.763 48.3637 31.9995C48.3589 36.338 46.6333 40.4975 43.5656 43.5653C40.4978 46.6331 36.3385 48.3588 32 48.3637ZM32 18.2928C29.289 18.2928 26.6388 19.0967 24.3847 20.6028C22.1306 22.109 20.3737 24.2497 19.3362 26.7544C18.2987 29.2591 18.0273 32.0152 18.5562 34.6742C19.0851 37.3331 20.3906 39.7755 22.3076 41.6925C24.2246 43.6095 26.6669 44.915 29.3259 45.4438C31.9848 45.9727 34.7409 45.7012 37.2455 44.6637C39.7501 43.6261 41.8908 41.8692 43.3969 39.6149C44.903 37.3607 45.7068 34.7105 45.7067 31.9995C45.7026 28.3654 44.2572 24.8814 41.6876 22.3117C39.118 19.742 35.634 18.2969 32 18.2928ZM48.9569 18.2452C48.0147 18.2451 47.0938 17.9657 46.3104 17.4422C45.5271 16.9188 44.9166 16.1748 44.5561 15.3043C44.1955 14.4338 44.1012 13.476 44.2851 12.552C44.4689 11.6279 44.9226 10.7791 45.5889 10.1129C46.2551 9.44675 47.1039 8.99308 48.0279 8.80929C48.952 8.6255 49.9098 8.71985 50.7802 9.08042C51.6506 9.44098 52.3946 10.0516 52.918 10.8349C53.4414 11.6183 53.7208 12.5393 53.7208 13.4815C53.7193 14.7445 53.2169 15.9553 52.3238 16.8484C51.4307 17.7415 50.2199 18.2438 48.9569 18.2452ZM48.9569 11.3743C48.5402 11.3743 48.1329 11.4978 47.7864 11.7293C47.4399 11.9608 47.1699 12.2899 47.0104 12.6749C46.8509 13.0598 46.8092 13.4835 46.8904 13.8922C46.9717 14.3009 47.1724 14.6763 47.467 14.971C47.7616 15.2656 48.137 15.4663 48.5457 15.5476C48.9544 15.629 49.378 15.5873 49.763 15.4279C50.148 15.2684 50.4771 14.9984 50.7086 14.652C50.9401 14.3055 51.0637 13.8982 51.0638 13.4815C51.0632 12.9229 50.841 12.3873 50.446 11.9923C50.051 11.5972 49.5155 11.375 48.9569 11.3743Z" fill="black"/>
</svg>
