<svg width="65" height="64" viewBox="0 0 65 64" fill="none" xmlns="http://www.w3.org/2000/svg">
<path d="M31.9998 0.000183107C36.9834 -0.00645726 41.8997 1.15088 46.3569 3.38019C50.8146 5.60975 54.6899 8.84973 57.6739 12.842C60.6579 16.8342 62.668 21.4684 63.5441 26.3749C64.4203 31.2815 64.1382 36.325 62.7203 41.1032C61.3024 45.8815 58.788 50.2625 55.3774 53.897C51.9668 57.5316 47.7544 60.3191 43.0759 62.0377C38.3973 63.7562 33.382 64.3581 28.4296 63.7953C23.6985 63.2578 19.1498 61.6714 15.1138 59.1553L1.78218 63.9222C1.29121 64.0977 0.742949 63.971 0.378864 63.5977C0.0147704 63.2245 -0.0982587 62.6732 0.0894355 62.1867L5.06942 49.279C2.06623 44.5978 0.332562 39.211 0.0456123 33.6486C-0.253371 27.853 1.0293 22.0851 3.75643 16.9625C6.48356 11.8398 10.5525 7.55525 15.5275 4.56732C20.5021 1.5797 26.1954 0.0010801 31.9981 0.000183107V6.10366e-05C31.9985 6.05415e-05 31.9989 0.00018359 31.9992 0.000183107C31.9994 0.000183082 31.9996 6.10572e-05 31.9998 6.10366e-05V0.000183107ZM32.0001 2.66669C26.6804 2.66723 21.4609 4.11441 16.9005 6.85333C12.34 9.59226 8.61018 13.5199 6.11031 18.2156C3.61046 22.9114 2.43463 28.1986 2.7087 33.5113C2.98278 38.824 4.69642 43.9621 7.66622 48.3757C7.90922 48.7368 7.96059 49.1938 7.80391 49.5999L3.62484 60.4313L14.8311 56.4245L14.868 56.4119C15.2509 56.2875 15.6704 56.3427 16.0087 56.5635C19.8346 59.0609 24.1911 60.63 28.7307 61.1458C33.2703 61.6616 37.8678 61.1099 42.1565 59.5346C46.4451 57.9593 50.3064 55.4039 53.4328 52.0722C56.5592 48.7405 58.8642 44.7246 60.1639 40.3445C61.4636 35.9645 61.7221 31.3414 60.919 26.8437C60.1159 22.346 58.2732 18.0981 55.5379 14.4385C52.8026 10.779 49.2503 7.80885 45.164 5.76508C41.0778 3.72133 36.5706 2.66036 32.0018 2.66669H32.0001Z" fill="#070707"/>
<path d="M25.3333 16L25.3809 16.0008C25.8719 16.0183 26.3152 16.3049 26.5317 16.7487V16.7489L26.5362 16.7579C26.5392 16.7641 26.5437 16.7733 26.5496 16.7855C26.5615 16.8098 26.5791 16.8458 26.6019 16.8924C26.6475 16.9856 26.7139 17.1213 26.797 17.2905C26.9631 17.629 27.1956 18.1016 27.4614 18.6382C27.994 19.7134 28.6561 21.0372 29.1832 22.052C29.6794 23.0071 29.5604 24.0064 29.2974 24.7903C29.0342 25.575 28.5768 26.3065 28.1369 26.8985C27.6995 27.4873 27.2335 27.9983 26.8767 28.3634C27.6412 30.3565 28.7963 32.1797 30.2774 33.7245C31.8217 35.2046 33.6442 36.3591 35.6364 37.1233C36.0015 36.7665 36.5126 36.3006 37.1014 35.8631C37.6934 35.4233 38.4249 34.9658 39.2097 34.7026C39.9936 34.4397 40.9928 34.3207 41.948 34.8169C42.9627 35.344 44.2865 36.0059 45.3618 36.5385C45.8983 36.8043 46.3711 37.037 46.7096 37.2031C46.8788 37.2861 47.0144 37.3526 47.1076 37.3982C47.1542 37.421 47.1903 37.4385 47.2146 37.4504C47.2267 37.4563 47.2359 37.4608 47.242 37.4638C47.2451 37.4653 47.2475 37.4665 47.249 37.4673C47.2498 37.4676 47.2503 37.4679 47.2507 37.4681C47.2508 37.4682 47.251 37.4682 47.2511 37.4682L47.2512 37.4684C47.7093 37.6918 48 38.157 48 38.6667V41.3333C48 41.4272 47.9901 41.5209 47.9704 41.6126C47.5802 43.4346 46.5722 45.0658 45.1172 46.2298C43.6621 47.3938 41.8495 48.0192 39.9863 48V47.9997C38.8629 47.9969 37.5467 47.6487 36.2291 47.1517C34.8801 46.6429 33.4207 45.936 31.9839 45.1292C29.1246 43.5237 26.2355 41.4545 24.3905 39.6095C22.5454 37.7644 20.4762 34.8755 18.8707 32.0162C18.0639 30.5794 17.357 29.1199 16.8482 27.771C16.3648 26.4893 16.022 25.209 16.0011 24.1062L16 24C15.984 22.1416 16.6091 20.3343 17.7702 18.8829C18.9343 17.4279 20.5654 16.4199 22.3874 16.0296C22.4792 16.01 22.5728 16 22.6667 16H25.3333ZM37.0011 39.5473L37.0013 39.5471C36.6496 39.9471 36.0935 40.0994 35.587 39.9344C32.9 39.059 30.4459 37.5866 28.409 35.6277C28.3965 35.6157 28.3843 35.6034 28.3723 35.5909C26.4133 33.554 24.9409 31.1001 24.0655 28.4131C23.9056 27.9222 24.0438 27.3848 24.4165 27.032L24.4528 26.9987L24.4525 26.9991C24.4531 26.9986 24.4545 26.9973 24.4568 26.9953C24.4613 26.9913 24.4692 26.9842 24.4801 26.9743C24.5019 26.9546 24.5359 26.9234 24.58 26.882C24.6685 26.7992 24.7966 26.6761 24.9485 26.5215C25.2552 26.2089 25.6443 25.782 25.9964 25.3081C26.3565 24.8234 26.6325 24.35 26.7693 23.9422C26.9063 23.5336 26.8539 23.3529 26.8167 23.2813C26.2772 22.2427 25.6059 20.8999 25.0719 19.8219C24.8536 19.3812 24.6576 18.9833 24.502 18.6667H22.8161C21.6479 18.9471 20.6046 19.6085 19.8525 20.5487C19.0726 21.5235 18.6537 22.738 18.6666 23.9863C18.6666 23.9909 18.6667 23.9954 18.6667 24C18.6667 24.6469 18.884 25.6121 19.3433 26.8299C19.7929 28.0218 20.436 29.3574 21.1959 30.7105C22.7236 33.4312 24.6545 36.1022 26.2761 37.7238C27.8977 39.3454 30.5688 41.2763 33.2895 42.804C34.6427 43.5639 35.9782 44.207 37.1701 44.6566C38.388 45.1159 39.353 45.3333 40 45.3333C40.0046 45.3333 40.0092 45.3334 40.0138 45.3335C41.2621 45.3463 42.4764 44.9273 43.4513 44.1474C44.3915 43.3952 45.053 42.3519 45.3333 41.1834V39.4979C45.0168 39.3423 44.6189 39.1464 44.1782 38.9281C43.1002 38.3941 41.7573 37.7227 40.7187 37.1832C40.6472 37.146 40.4664 37.0938 40.0578 37.2308C39.6501 37.3676 39.1765 37.6435 38.6919 38.0036C38.218 38.3557 37.7911 38.7447 37.4786 39.0515C37.3239 39.2034 37.2007 39.3316 37.1179 39.42C37.0766 39.4641 37.0455 39.4981 37.0257 39.52C37.0158 39.5309 37.0088 39.5388 37.0047 39.5433C37.0029 39.5453 37.0017 39.5466 37.0011 39.5473Z" fill="black"/>
</svg>
