<svg width="64" height="64" viewBox="0 0 64 64" fill="none" xmlns="http://www.w3.org/2000/svg">
<path d="M47 18.2388V18.161C47 17.8531 46.8722 17.5578 46.6446 17.3401C46.4171 17.1223 46.1084 17 45.7866 17H33.4328C33.111 17 32.8023 17.1223 32.5748 17.3401C32.3473 17.5578 32.2194 17.8531 32.2194 18.161C32.2194 18.469 32.3473 18.7643 32.5748 18.982C32.8023 19.1997 33.111 19.3221 33.4328 19.3221H42.9387L22.3553 39.0179C22.2427 39.1258 22.1533 39.2538 22.0923 39.3946C22.0314 39.5355 22 39.6865 22 39.839C22 39.9915 22.0314 40.1424 22.0924 40.2833C22.1534 40.4242 22.2428 40.5522 22.3555 40.66C22.4682 40.7678 22.6019 40.8533 22.7491 40.9116C22.8964 40.97 23.0542 41 23.2135 41C23.3729 41 23.5306 40.9699 23.6779 40.9116C23.8251 40.8532 23.9588 40.7677 24.0715 40.6599L44.5733 21.042V30.1382C44.5733 30.4461 44.7011 30.7414 44.9287 30.9591C45.1562 31.1769 45.4648 31.2992 45.7866 31.2992C46.1084 31.2992 46.4171 31.1769 46.6446 30.9591C46.8722 30.7414 47 30.4461 47 30.1382V18.2388Z" fill="black"/>
<path d="M47.9771 63.9997H16.0229C11.7749 63.995 7.70227 62.3054 4.69844 59.3016C1.69461 56.2978 0.00490214 52.2252 0 47.9771V16.0224C0.00497215 11.7744 1.69471 7.70177 4.69853 4.69805C7.70235 1.69433 11.775 0.00476179 16.0229 0H47.9771C52.2251 0.00476192 56.2977 1.69437 59.3016 4.69814C62.3054 7.70192 63.9951 11.7746 64 16.0226V47.9774C63.9951 52.2254 62.3054 56.2981 59.3016 59.3019C56.2977 62.3056 52.2251 63.9952 47.9771 64V63.9997ZM16.0229 2.6565C12.4793 2.66056 9.0821 4.07005 6.57644 6.57576C4.07078 9.08146 2.66131 12.4788 2.65725 16.0224V47.9771C2.66131 51.5207 4.07078 54.918 6.57644 57.4237C9.0821 59.9294 12.4793 61.3389 16.0229 61.343H47.9771C51.5207 61.339 54.9181 59.9295 57.4238 57.4237C59.9296 54.9179 61.339 51.5205 61.343 47.9768V16.0224C61.339 12.4787 59.9295 9.08138 57.4237 6.57566C54.918 4.06995 51.5207 2.66049 47.9771 2.6565H16.0229Z" fill="black"/>
</svg>
