<svg width="64" height="64" viewBox="0 0 64 64" fill="none" xmlns="http://www.w3.org/2000/svg">
<path d="M51.4029 16.9063C50.9269 16.3219 50.2125 16 49.391 16C48.9478 16 48.4783 16.0928 47.9955 16.2757L14.9772 28.7858C13.2216 29.4512 12.9853 30.4526 13.0007 30.9903C13.016 31.5254 13.3063 32.5045 15.0734 33.0698L22.0757 35.6359L25.7662 44.0834C26.1371 45.2518 26.9123 46.0714 27.9017 46.3373C28.1285 46.3982 28.3623 46.4289 28.5971 46.4287C29.4006 46.4287 30.2233 46.0749 30.9338 45.4076L33.9913 42.5351L41.4515 47.6699C42.1233 48.1664 42.8544 48.4286 43.5672 48.4285C45.0141 48.4284 46.168 47.3693 46.5071 45.7301L51.9072 19.6127C52.1291 18.5393 51.95 17.5782 51.4029 16.9063ZM24.3964 35.2394L33.9252 30.1295L27.2843 36.2211C27.168 36.3281 27.0752 36.4581 27.0117 36.6028C26.9483 36.7476 26.9156 36.9039 26.9157 37.0619C26.9153 37.0736 26.9138 37.0851 26.9137 37.0968L26.8908 40.9491L24.3964 35.2394ZM29.3692 43.742C29.3026 43.8047 29.2322 43.8632 29.1583 43.917L29.1863 39.2276L32.065 41.2091L29.3692 43.742ZM49.6693 19.1499L44.2692 45.2673C44.2148 45.5306 44.0373 46.1432 43.5671 46.1432C43.3474 46.1432 43.075 46.0302 42.8001 45.8248C42.7883 45.816 42.7763 45.8075 42.7642 45.7992L34.5397 40.1382L34.5363 40.1359L29.8863 36.9353L42.1699 25.6679C42.375 25.4797 42.5044 25.2231 42.5337 24.9463C42.5631 24.6695 42.4903 24.3915 42.3292 24.1645C42.1681 23.9375 41.9297 23.7771 41.6587 23.7135C41.3877 23.6498 41.1028 23.6873 40.8574 23.8189L22.8388 33.4816L15.8363 30.9155C15.8312 30.9136 15.826 30.9118 15.8209 30.91L48.8052 18.4127C49.0832 18.3073 49.2772 18.2852 49.391 18.2852C49.4474 18.2852 49.5838 18.2915 49.6309 18.3494C49.6913 18.4235 49.7673 18.6756 49.6693 19.1499Z" fill="black"/>
<path d="M47.9771 63.9997H16.0229C11.7749 63.995 7.70227 62.3054 4.69844 59.3016C1.69461 56.2978 0.00490214 52.2252 0 47.9771V16.0224C0.00497215 11.7744 1.69471 7.70177 4.69853 4.69805C7.70235 1.69433 11.775 0.00476179 16.0229 0H47.9771C52.2251 0.00476192 56.2977 1.69437 59.3016 4.69814C62.3054 7.70192 63.9951 11.7746 64 16.0226V47.9774C63.9951 52.2254 62.3054 56.2981 59.3016 59.3019C56.2977 62.3056 52.2251 63.9952 47.9771 64V63.9997ZM16.0229 2.6565C12.4793 2.66056 9.0821 4.07005 6.57644 6.57576C4.07078 9.08146 2.66131 12.4788 2.65725 16.0224V47.9771C2.66131 51.5207 4.07078 54.918 6.57644 57.4237C9.0821 59.9294 12.4793 61.3389 16.0229 61.343H47.9771C51.5207 61.339 54.9181 59.9295 57.4238 57.4237C59.9296 54.9179 61.339 51.5205 61.343 47.9768V16.0224C61.339 12.4787 59.9295 9.08138 57.4237 6.57566C54.918 4.06995 51.5207 2.66049 47.9771 2.6565H16.0229Z" fill="black"/>
</svg>
