<svg width="64" height="64" viewBox="0 0 64 64" fill="none" xmlns="http://www.w3.org/2000/svg">
<path fill-rule="evenodd" clip-rule="evenodd" d="M15.2062 21.404C15.302 21.2788 15.4267 21.1771 15.5703 21.1069C15.7139 21.0368 15.8724 21.0002 16.0332 21H22.2203C22.4503 21.0001 22.6737 21.0747 22.8549 21.212C23.0362 21.3494 23.1649 21.5416 23.2205 21.758L25.3386 29.97C25.4771 30.5089 25.7297 31.014 26.0806 31.453C26.4314 31.8921 26.8726 32.2554 27.3762 32.52V25.162L26.3986 22.316C26.347 22.1657 26.333 22.0058 26.3576 21.8492C26.3822 21.6926 26.4448 21.544 26.5403 21.4155C26.6357 21.287 26.7613 21.1823 26.9066 21.1101C27.0519 21.0379 27.2129 21.0001 27.3762 21H34.5944C34.8679 21 35.1302 21.1054 35.3236 21.2929C35.517 21.4804 35.6256 21.7348 35.6256 22V26.632C36.3062 26.326 36.9002 25.842 37.3291 25.218L39.9236 21.446C40.0177 21.3089 40.1452 21.1965 40.2949 21.1186C40.4445 21.0408 40.6117 21.0001 40.7815 21H46.9686C47.1511 21 47.3302 21.0469 47.4879 21.1359C47.6455 21.225 47.776 21.353 47.866 21.507C47.9559 21.6609 48.0021 21.8352 47.9999 22.0121C47.9977 22.189 47.9471 22.3622 47.8534 22.514L43.576 29.428C43.0954 30.205 42.8416 31.094 42.8416 32C42.8416 32.906 43.0954 33.795 43.576 34.572L47.8534 41.486C47.9471 41.6378 47.9977 41.811 47.9999 41.9879C48.0021 42.1648 47.9559 42.3391 47.866 42.493C47.776 42.647 47.6455 42.775 47.4879 42.8641C47.3302 42.9531 47.1511 43 46.9686 43H40.7815C40.6117 42.9999 40.4445 42.9592 40.2949 42.8814C40.1452 42.8035 40.0177 42.6911 39.9236 42.554L37.3291 38.782C36.9069 38.1671 36.3173 37.6777 35.6256 37.368V42C35.6256 42.2652 35.517 42.5196 35.3236 42.7071C35.1302 42.8946 34.8679 43 34.5944 43H26.8235C25.2713 42.9999 23.7606 42.5146 22.5153 41.616C21.27 40.7175 20.3566 39.4537 19.9105 38.012L15.0433 22.288C14.9972 22.1387 14.9878 21.981 15.0157 21.8275C15.0436 21.674 15.1102 21.529 15.2062 21.404ZM17.4191 23L21.8862 37.436C22.2046 38.4659 22.8569 39.3688 23.7463 40.0108C24.6357 40.6528 25.7148 40.9997 26.8235 41H33.5633V36.046C33.5634 35.9032 33.595 35.7622 33.656 35.6323C33.717 35.5023 33.806 35.3866 33.917 35.2928C34.0279 35.199 34.1583 35.1294 34.2994 35.0885C34.4404 35.0477 34.5889 35.0366 34.7347 35.056C35.6033 35.171 36.4367 35.4637 37.1798 35.9147C37.9229 36.3657 38.5587 36.9647 39.045 37.672L41.3342 41H45.1475L41.8065 35.6C41.134 34.5124 40.7788 33.2681 40.7788 32C40.7788 30.7319 41.134 29.4876 41.8065 28.4L45.1475 23H41.3322L39.045 26.328C38.5587 27.0353 37.9229 27.6343 37.1798 28.0853C36.4367 28.5363 35.6033 28.829 34.7347 28.944C34.5889 28.9634 34.4404 28.9523 34.2994 28.9115C34.1583 28.8706 34.0279 28.801 33.917 28.7072C33.806 28.6134 33.717 28.4977 33.656 28.3677C33.595 28.2378 33.5634 28.0968 33.5633 27.954V23H28.8075L29.3849 24.684C29.4202 24.7859 29.4383 24.8926 29.4386 25V33.918C29.4386 34.0646 29.4054 34.2094 29.3413 34.3422C29.2773 34.475 29.1839 34.5925 29.0678 34.6863C28.9517 34.7802 28.8157 34.8482 28.6695 34.8855C28.5233 34.9227 28.3705 34.9284 28.2218 34.902C27.0535 34.6937 25.9718 34.1637 25.1058 33.3754C24.2398 32.587 23.6262 31.5735 23.3381 30.456L21.416 23H17.4191Z" fill="black"/>
<path d="M47.9771 63.9997H16.0229C11.7749 63.995 7.70227 62.3054 4.69844 59.3016C1.69461 56.2978 0.00490214 52.2252 0 47.9771V16.0224C0.00497215 11.7744 1.69471 7.70177 4.69853 4.69805C7.70235 1.69433 11.775 0.00476179 16.0229 0H47.9771C52.2251 0.00476192 56.2977 1.69437 59.3016 4.69814C62.3054 7.70192 63.9951 11.7746 64 16.0226V47.9774C63.9951 52.2254 62.3054 56.2981 59.3016 59.3019C56.2977 62.3056 52.2251 63.9952 47.9771 64V63.9997ZM16.0229 2.6565C12.4793 2.66056 9.0821 4.07005 6.57644 6.57576C4.07078 9.08146 2.66131 12.4788 2.65725 16.0224V47.9771C2.66131 51.5207 4.07078 54.918 6.57644 57.4237C9.0821 59.9294 12.4793 61.3389 16.0229 61.343H47.9771C51.5207 61.339 54.9181 59.9295 57.4238 57.4237C59.9296 54.9179 61.339 51.5205 61.343 47.9768V16.0224C61.339 12.4787 59.9295 9.08138 57.4237 6.57566C54.918 4.06995 51.5207 2.66049 47.9771 2.6565H16.0229Z" fill="black"/>
</svg>
